<svg xmlns="http://www.w3.org/2000/svg" width="48px" height="48px" viewBox="0 0 48 48" fill="#3C4043">
 <g>
  <path id="svg_2" fill="none" d="m27.52734,14.47559l48,0l0,48l-48,0l0,-48z"/>
  <path id="svg_4" fill="none" d="m-27.76465,-23.96777l48,0l0,48l-48,0l0,-48z"/>
  <path id="svg_6" fill="none" d="m143.82861,42.73682l48,0l0,48l-48,0l0,-48z"/>
  <g id="svg_7">
   <path fill="black" id="svg_1" d="m14.93808,12l-2.83,2.83l9.17,9.17l-9.17,9.17l2.83,2.83l12,-12l-12,-12z"/>
   <path fill="black" id="svg_3" d="m23.89192,12l-2.83,2.83l9.17,9.17l-9.17,9.17l2.83,2.83l12,-12l-12,-12z"/>
  </g>
 </g>
</svg>